# Blender v2.63 (sub 0) OBJ File: ''
# www.blender.org
mtllib base.mtl
o base_shape0.018
v -0.009000 0.030000 0.091500
v 0.009506 0.029935 0.091759
v 0.070609 0.012000 -0.062318
v -0.072226 0.012000 0.056594
v -0.071661 0.012000 0.059525
v 0.072226 0.012000 -0.056594
v 0.071661 0.012000 -0.059525
v 0.069099 0.012000 -0.064893
v 0.064893 0.012000 -0.069099
v 0.071012 0.012000 0.061407
v 0.009640 0.028063 0.092000
v 0.009332 0.028485 0.092000
v 0.010704 0.029045 0.091991
v 0.009700 0.027700 0.092000
v -0.009000 0.008000 0.091500
v 0.009000 0.008042 0.091690
v 0.067175 0.012000 -0.067175
v -0.008700 0.028700 0.092000
v 0.008700 0.028700 0.092000
v -0.010044 0.029704 0.091995
v -0.009208 0.028580 0.092000
v 0.010190 0.008373 0.092001
v 0.001414 0.037207 -0.075075
v -0.002214 0.036398 -0.075088
v 0.001018 0.034621 -0.075100
v 0.001313 0.031611 -0.075091
v 0.056594 0.012000 -0.072226
v 0.059525 0.012000 -0.071661
v 0.062318 0.012000 -0.070609
v -0.009700 0.027700 0.092000
v -0.010693 0.029070 0.091993
v -0.010500 0.010000 0.092000
v -0.009634 0.028087 0.092000
v -0.010412 0.008584 0.092000
v -0.009294 0.009486 0.092000
v 0.072279 0.012000 0.055999
v 0.071860 0.000000 0.058753
v 0.072279 0.000000 0.055999
v 0.071860 0.012000 0.058753
v 0.068121 0.012000 0.066151
v 0.068121 0.000000 0.066151
v 0.066151 0.000000 0.068121
v 0.066151 0.012000 0.068121
v 0.069755 0.000000 0.063894
v 0.069755 0.012000 0.063894
v 0.063894 0.012000 0.069755
v 0.063894 0.000000 0.069755
v 0.061407 0.000000 0.071012
v 0.061407 0.012000 0.071012
v -0.066151 0.000000 -0.068121
v -0.068121 0.000000 -0.066151
v -0.068121 0.012000 -0.066151
v -0.066151 0.012000 -0.068121
v -0.055999 0.012000 -0.072279
v -0.058753 0.000000 -0.071860
v -0.055999 0.000000 -0.072279
v -0.058753 0.012000 -0.071860
v -0.069755 0.000000 -0.063894
v -0.069755 0.012000 -0.063894
v -0.071012 0.012000 -0.061407
v -0.071012 0.000000 -0.061407
v -0.071860 0.000000 -0.058753
v -0.072279 0.000000 -0.055999
v -0.072279 0.012000 -0.055999
v -0.071860 0.012000 -0.058753
v -0.067175 0.000000 0.067175
v -0.064893 0.000000 0.069099
v -0.064893 0.012000 0.069099
v -0.067175 0.012000 0.067175
v -0.062318 0.000000 0.070609
v -0.062318 0.012000 0.070609
v -0.061407 0.012000 -0.071012
v -0.061407 0.000000 -0.071012
v 0.025409 0.038000 -0.070565
v 0.074152 0.038000 -0.011240
v 0.073134 0.038000 -0.016624
v 0.058215 0.038000 0.047286
v 0.054615 0.038000 0.051401
v 0.073609 0.038000 0.014377
v 0.074394 0.038000 0.009508
v 0.010010 0.038000 -0.074329
v 0.004557 0.038000 -0.074861
v -0.074525 0.038000 -0.008429
v -0.073810 0.038000 -0.013309
v 0.020189 0.038000 -0.072231
v 0.014872 0.038000 -0.073511
v 0.064201 0.038000 0.038771
v 0.066855 0.038000 0.033991
v -0.068012 0.038000 0.031612
v -0.069942 0.038000 0.027076
v -0.019935 0.038000 0.076000
v -0.020923 0.038000 0.075858
v -0.053033 0.038000 0.053033
v -0.056755 0.038000 0.049029
v -0.060176 0.038000 0.044764
v -0.062987 0.038000 0.040714
v 0.043034 0.038000 0.061425
v 0.021830 0.038000 0.075443
v -0.061818 0.038000 -0.042468
v -0.064475 0.038000 -0.038314
v 0.020923 0.038000 0.075858
v -0.058558 0.038000 -0.046861
v 0.056752 0.038000 -0.049032
v 0.060170 0.038000 -0.044772
v 0.034921 0.038000 -0.066374
v 0.039209 0.038000 -0.063935
v 0.043323 0.038000 -0.061222
v 0.074890 0.038000 0.004048
v 0.050719 0.038000 0.055249
v 0.019935 0.038000 0.076000
v 0.046976 0.038000 0.058465
v -0.071730 0.038000 0.021904
v -0.011279 0.038000 -0.074147
v -0.005838 0.038000 -0.074772
v -0.049612 0.038000 0.056246
v 0.074731 0.038000 -0.006340
v 0.071730 0.038000 -0.021904
v 0.070135 0.038000 -0.026571
v 0.047672 0.038000 -0.057899
v -0.021830 0.038000 0.075443
v -0.041559 0.038000 0.062433
v -0.065787 0.038000 0.036014
v -0.074683 0.038000 0.006881
v -0.074974 0.038000 0.001957
v -0.073983 0.038000 0.012310
v 0.072366 0.038000 0.019700
v 0.070735 0.038000 0.024929
v 0.074986 0.038000 -0.001420
v 0.061197 0.038000 0.043356
v -0.045997 0.038000 0.059239
v -0.000912 0.038000 -0.074994
v -0.039834 0.038000 -0.063547
v -0.043921 0.038000 -0.060794
v -0.072643 0.038000 -0.018655
v 0.065521 0.038000 -0.036497
v 0.068006 0.038000 -0.031623
v -0.067100 0.038000 -0.033505
v 0.053033 0.038000 -0.053033
v 0.062984 0.038000 -0.040718
v 0.068943 0.038000 0.029527
v -0.073015 0.038000 0.017142
v -0.016122 0.038000 -0.073247
v -0.051908 0.038000 -0.054135
v -0.055351 0.038000 -0.050608
v -0.047822 0.038000 -0.057775
v -0.035093 0.038000 -0.066283
v -0.071087 0.038000 -0.023907
v -0.069363 0.038000 -0.028527
v -0.074941 0.038000 -0.002969
v 0.050411 0.038000 -0.055531
v -0.026100 0.038000 -0.070312
v -0.030660 0.038000 -0.068447
v 0.029989 0.038000 -0.068743
v -0.020901 0.038000 -0.072028
v -0.069099 0.000000 0.064893
v 0.071012 0.000000 -0.061407
v 0.071860 0.000000 -0.058753
v 0.074942 0.000000 0.002949
v -0.074942 0.000000 0.002949
v -0.072226 0.000000 0.056594
v -0.059525 0.000000 0.071661
v -0.056594 0.000000 0.072226
v 0.068121 0.000000 -0.066151
v 0.066151 0.000000 -0.068121
v 0.058753 0.000000 0.071860
v 0.055999 0.000000 0.072279
v 0.074942 0.000000 -0.002949
v 0.072279 0.000000 -0.055999
v 0.002949 0.000000 -0.074942
v -0.002949 0.000000 -0.074942
v -0.071661 0.000000 0.059525
v -0.070609 0.000000 0.062318
v 0.019935 0.000000 0.076000
v -0.063894 0.000000 -0.069755
v -0.074942 0.000000 -0.002949
v -0.019935 0.000000 0.076000
v 0.055999 0.000000 -0.072279
v 0.071012 0.000000 0.061407
v 0.069755 0.000000 -0.063894
v 0.063894 0.000000 -0.069755
v 0.058753 0.000000 -0.071860
v 0.061407 0.000000 -0.071012
v -0.070609 0.012000 0.062318
v -0.069099 0.012000 0.064893
v -0.063894 0.012000 -0.069755
vn 0.377937 -0.008937 0.925788
vn 0.383735 0.679265 0.625577
vn -0.050144 -0.002982 -0.998738
vn 0.999999 -0.001170 0.000000
vn 0.998742 0.000850 -0.050144
vn 0.998705 0.001862 -0.050847
vn 0.988675 -0.003103 -0.150038
vn 0.971688 0.184603 0.147460
vn 0.269529 -0.465092 0.843234
vn 0.382328 0.000000 0.924027
vn 0.000000 0.890209 0.455552
vn -0.071086 0.866820 0.493527
vn 0.008522 0.263015 0.964754
vn 0.418870 0.650453 0.633607
vn 0.482704 0.594741 0.642869
vn 0.070739 0.868219 0.491113
vn 0.265652 0.769383 0.580929
vn 0.000000 -0.004725 -0.999989
vn -0.006322 -0.003873 -0.999973
vn 0.892456 -0.004234 -0.451114
vn 0.981940 0.004140 -0.189147
vn 0.952518 -0.003762 -0.304460
vn 0.935759 0.004697 -0.352610
vn 0.951161 0.248443 -0.183218
vn 0.644505 0.005273 -0.764582
vn -0.998089 0.018440 0.058983
vn -0.981949 0.000000 0.189145
vn -0.836316 0.448619 0.315145
vn -0.935766 0.000000 0.352620
vn 0.000000 -0.889910 0.456135
vn 0.049826 -0.874283 0.482853
vn 0.082860 -0.833671 0.546010
vn 0.086161 -0.829092 0.552434
vn 0.926767 0.307036 0.216408
vn 0.967063 0.201160 0.155963
vn 0.877406 0.394027 0.273683
vn 0.992682 0.080377 0.090127
vn 0.999844 0.000859 0.017644
vn 0.998742 -0.000082 0.050144
vn 0.998739 -0.000000 0.050204
vn 0.682710 0.577910 0.447132
vn 0.731015 0.548457 0.405972
vn 0.518288 0.606249 0.603191
vn 0.556934 0.609753 0.563938
vn -0.471287 0.590849 0.654818
vn -0.465843 0.587683 0.661528
vn -0.003351 0.887652 0.460504
vn -0.004083 0.862244 0.506477
vn -0.025420 0.880913 0.472596
vn -0.005723 -0.003431 -0.999978
vn -0.044878 0.094359 -0.994526
vn -0.971635 0.184887 -0.147452
vn -1.000000 -0.000852 -0.000000
vn -0.998726 0.000468 0.050463
vn -0.998721 0.000000 0.050567
vn 0.755236 0.530333 -0.385183
vn 0.952931 0.243797 -0.180237
vn 0.807266 0.482333 -0.340114
vn 0.836354 0.448543 -0.315152
vn 0.586447 -0.004512 -0.809975
vn 0.862613 0.005076 -0.505839
vn 0.716251 0.557292 -0.420011
vn 0.707099 -0.004601 -0.707099
vn 0.809975 -0.004512 -0.586447
vn 0.764582 0.005273 -0.644505
vn 0.580709 0.609455 -0.539761
vn 0.623367 0.601102 -0.500090
vn 0.609833 0.603197 -0.514060
vn 0.505839 0.005076 -0.862613
vn 0.150038 -0.003103 -0.988675
vn 0.050144 -0.002124 -0.998740
vn 0.052398 0.001785 -0.998625
vn -0.980652 0.149331 0.126577
vn -0.951316 0.247830 0.183245
vn -0.946819 0.259916 0.189679
vn -0.757860 0.528107 0.383081
vn -0.804848 0.484751 0.342397
vn -0.904207 0.350579 0.243935
vn -0.855260 0.425569 0.295672
vn -0.981948 -0.000001 0.189149
vn -0.935769 -0.000002 0.352614
vn 0.872724 0.400674 0.278949
vn 0.759048 0.525955 0.383689
vn 0.952526 0.000000 0.304456
vn 0.952524 -0.000002 0.304462
vn 0.892464 -0.000002 0.451119
vn 0.892460 -0.000000 0.451127
vn 0.597945 0.607340 0.523067
vn 0.560681 0.609322 0.560681
vn 0.639693 0.595941 0.485435
vn 0.654258 0.589534 0.473704
vn 0.438313 0.236568 0.867131
vn 0.465167 0.585831 0.663643
vn 0.473665 0.589625 0.654205
vn -0.263152 0.774335 0.575462
vn -0.412550 0.662132 0.625607
vn -0.508787 0.602844 0.614585
vn -0.623407 0.601086 0.500059
vn -0.665633 0.586095 0.461979
vn -0.711093 0.561133 0.423646
vn -0.716067 0.557610 0.419904
vn 0.008289 0.000287 0.999966
vn 0.000818 0.020490 0.999790
vn 0.002887 0.008476 0.999960
vn 0.000025 0.000075 1.000000
vn -0.000072 -0.000241 1.000000
vn -0.177380 0.239958 -0.954440
vn -0.560871 0.608973 -0.560871
vn -0.567136 0.609622 -0.553822
vn -0.604412 0.606006 -0.517148
vn -0.646252 0.593560 -0.479630
vn -0.935920 0.286913 -0.204292
vn -0.973828 0.176923 -0.142679
vn -0.787093 0.502443 -0.357822
vn -0.689749 0.574124 -0.441167
vn -0.654039 0.589905 -0.473545
vn -0.736068 0.544776 -0.401776
vn -0.759044 0.525970 -0.383678
vn 0.998650 0.003871 -0.051791
vn 0.984658 0.130031 -0.116365
vn 0.906588 0.346397 -0.241053
vn 0.857872 0.421997 -0.293212
vn 0.665507 0.586159 -0.462080
vn 0.708642 0.562587 -0.425818
vn 0.451114 -0.004234 -0.892456
vn 0.514068 0.603181 -0.609842
vn 0.486966 0.597115 -0.637431
vn 0.420040 0.557209 -0.716299
vn 0.448956 0.578726 -0.680819
vn 0.183284 0.247096 -0.951499
vn 0.189147 0.004140 -0.981940
vn 0.304460 -0.003762 -0.952518
vn 0.352610 0.004697 -0.935759
vn 0.779636 0.509137 0.364619
vn 0.826828 0.460972 0.322275
vn -0.542727 0.609522 0.577867
vn -0.513936 0.603450 0.609687
vn -0.580694 0.609455 0.539776
vn -0.609838 0.603189 0.514064
vn -0.465054 0.472929 0.748374
vn -0.461426 0.409771 0.786876
vn 0.004889 0.003572 0.999982
vn 0.007097 0.001177 0.999974
vn 0.000107 0.000078 1.000000
vn 0.000546 0.000091 1.000000
vn -0.118483 -0.779502 0.615092
vn -0.050004 -0.872695 0.485699
vn -0.112167 -0.788772 0.604365
vn -0.002778 -0.887818 0.460186
vn -0.006222 -0.673205 0.739430
vn -0.006795 -0.659836 0.751379
vn -0.113306 0.124053 -0.985785
vn -0.147481 0.183837 -0.971830
vn -0.069649 0.038771 -0.996818
vn -0.052157 -0.000000 -0.998639
vn -0.490501 0.598012 -0.633869
vn -0.528118 0.608137 -0.592672
vn -0.837388 0.448417 -0.312578
vn -0.873021 0.399956 -0.279050
vn -0.887460 0.378614 -0.262806
vn -0.999977 0.000020 -0.006752
vn -0.995704 0.052959 -0.075958
vn -0.998742 -0.000002 -0.050144
vn -0.998742 0.000000 -0.050145
vn 0.546802 0.609598 -0.573932
vn 0.520619 0.605333 -0.602103
vn 0.370846 0.516494 -0.771820
vn 0.412162 0.552337 -0.724601
vn 0.221977 0.315607 -0.922561
vn 0.000000 0.005222 0.999986
vn -0.000935 0.003970 0.999992
vn -0.000000 0.000073 1.000000
vn -0.000014 0.000060 1.000000
vn -0.005275 0.001904 0.999984
vn -0.002904 0.002506 0.999993
vn -0.000057 0.000018 1.000000
vn -0.000040 0.000035 1.000000
vn -0.381001 -0.003491 0.924568
vn -0.382681 0.000000 0.923880
vn -0.377621 -0.023349 0.925666
vn -0.345783 -0.195874 0.917642
vn 0.023997 0.170250 -0.985109
vn -0.011482 0.067389 -0.997661
vn 0.001427 0.009571 -0.999953
vn 0.062001 0.022954 -0.997812
vn 0.052485 0.002032 -0.998620
vn 0.050249 0.002072 -0.998735
vn 0.162135 0.212562 -0.963602
vn 0.096756 0.093210 -0.990934
vn -0.374895 0.519138 -0.768081
vn -0.333275 0.474520 -0.814714
vn -0.232892 0.333156 -0.913657
vn -0.278976 0.400512 -0.872790
vn -0.285760 0.411364 -0.865518
vn 0.278490 0.402212 -0.872163
vn 0.326990 0.465590 -0.822377
vn 0.315115 0.448756 -0.836254
vn -0.007071 0.000320 0.999975
vn -0.006078 0.001039 0.999981
vn -0.000344 0.000016 1.000000
vn -0.000277 0.000013 1.000000
vn -0.000099 0.000017 1.000000
vn -0.454469 0.581647 -0.674644
vn -0.473742 0.589444 -0.654312
vn -0.415349 0.556225 -0.719791
vn -0.383594 0.526269 -0.758879
vn 0.988680 0.000000 0.150038
vn 0.707107 0.000000 0.707107
vn 0.809983 -0.000000 0.586453
vn 0.586453 -0.000000 0.809983
vn 0.451119 0.000000 0.892464
vn -0.707107 -0.000000 -0.707107
vn -0.150038 0.000000 -0.988680
vn -0.809983 0.000000 -0.586453
vn -0.892464 0.000000 -0.451119
vn -0.988680 -0.000000 -0.150038
vn -0.952524 0.000000 -0.304462
vn -0.644514 0.000000 0.764592
vn -0.505845 0.000000 0.862624
vn -0.304462 0.000000 -0.952524
vn 0.000000 1.000000 -0.000000
vn -0.000000 -1.000000 0.000000
vn -0.862624 0.000000 0.505845
vn -0.764592 0.000000 0.644514
vn -0.586453 -0.000000 -0.809983
vn -0.451119 0.000000 -0.892464
usemtl 
s off
f 48//1 13//1 22//1
f 98//2 2//2 13//2
f 56//3 24//3 170//3
f 158//4 167//4 128//4
f 167//5 168//5 128//5
f 128//6 168//6 6//6
f 6//7 168//7 157//7
f 36//8 80//8 39//8
f 165//9 48//9 22//9
f 49//10 13//10 48//10
f 91//11 2//11 110//11
f 20//12 91//12 92//12
f 20//13 13//13 2//13
f 97//14 98//14 13//14
f 97//15 43//15 111//15
f 101//16 110//16 2//16
f 101//17 2//17 98//17
f 26//18 169//18 170//18
f 24//19 26//19 170//19
f 179//20 3//20 156//20
f 7//21 6//21 157//21
f 7//22 157//22 156//22
f 7//23 156//23 3//23
f 7//24 76//24 6//24
f 17//25 164//25 9//25
f 4//26 123//26 124//26
f 4//27 160//27 5//27
f 5//28 183//28 90//28
f 183//29 5//29 172//29
f 16//30 176//30 173//30
f 173//31 166//31 16//31
f 165//32 16//32 166//32
f 16//33 165//33 22//33
f 79//34 126//34 39//34
f 79//35 39//35 80//35
f 39//36 126//36 127//36
f 80//37 36//37 108//37
f 108//38 158//38 128//38
f 108//39 38//39 158//39
f 108//40 36//40 38//40
f 45//41 87//41 129//41
f 87//42 45//42 88//42
f 43//43 109//43 111//43
f 109//44 43//44 78//44
f 68//45 121//45 130//45
f 68//46 20//46 121//46
f 91//47 1//47 2//47
f 1//48 20//48 2//48
f 20//49 1//49 91//49
f 25//50 26//50 24//50
f 24//51 114//51 131//51
f 64//52 84//52 65//52
f 175//53 159//53 124//53
f 159//54 4//54 124//54
f 159//55 160//55 4//55
f 135//56 136//56 3//56
f 75//57 6//57 76//57
f 118//58 3//58 136//58
f 118//59 7//59 3//59
f 164//60 180//60 9//60
f 8//61 3//61 179//61
f 8//62 135//62 3//62
f 164//63 17//63 163//63
f 163//64 8//64 179//64
f 163//65 17//65 8//65
f 103//66 17//66 138//66
f 104//67 8//67 103//67
f 103//68 8//68 17//68
f 9//69 180//69 29//69
f 177//70 27//70 181//70
f 169//71 26//71 177//71
f 177//72 26//72 27//72
f 125//73 123//73 4//73
f 5//74 125//74 4//74
f 125//75 5//75 141//75
f 122//76 89//76 183//76
f 89//77 90//77 183//77
f 5//78 112//78 141//78
f 112//79 5//79 90//79
f 171//80 5//80 160//80
f 171//81 172//81 5//81
f 39//82 127//82 10//82
f 10//83 88//83 45//83
f 10//84 37//84 39//84
f 10//85 178//85 37//85
f 10//86 44//86 178//86
f 10//87 45//87 44//87
f 40//88 77//88 78//88
f 40//89 78//89 43//89
f 129//90 77//90 40//90
f 40//91 45//91 129//91
f 49//92 46//92 13//92
f 46//93 97//93 13//93
f 97//94 46//94 43//94
f 120//95 20//95 92//95
f 120//96 121//96 20//96
f 115//97 68//97 130//97
f 184//98 94//98 95//98
f 184//99 95//99 96//99
f 184//100 96//100 122//100
f 184//101 122//101 183//101
f 14//102 22//102 13//102
f 19//103 13//103 20//103
f 19//104 12//104 13//104
f 22//105 12//105 19//105
f 35//106 34//106 22//106
f 142//107 113//107 57//107
f 143//108 53//108 52//108
f 143//109 52//109 144//109
f 52//110 102//110 144//110
f 102//111 52//111 99//111
f 134//112 65//112 84//112
f 64//113 83//113 84//113
f 137//114 60//114 148//114
f 100//115 99//115 59//115
f 59//116 99//116 52//116
f 59//117 137//117 100//117
f 59//118 60//118 137//118
f 128//119 6//119 116//119
f 116//120 6//120 75//120
f 7//121 117//121 76//121
f 118//122 117//122 7//122
f 139//123 8//123 104//123
f 8//124 139//124 135//124
f 182//125 29//125 180//125
f 119//126 17//126 9//126
f 119//127 9//127 107//127
f 29//128 106//128 9//128
f 106//129 107//129 9//129
f 86//130 28//130 27//130
f 27//131 28//131 181//131
f 28//132 182//132 181//132
f 29//133 182//133 28//133
f 10//134 140//134 88//134
f 140//135 10//135 127//135
f 69//136 115//136 93//136
f 69//137 68//137 115//137
f 69//138 93//138 94//138
f 184//139 69//139 94//139
f 31//140 20//140 68//140
f 68//141 71//141 31//141
f 11//142 13//142 12//142
f 11//143 14//143 13//143
f 11//144 12//144 22//144
f 14//145 11//145 22//145
f 161//146 162//146 34//146
f 15//147 162//147 176//147
f 34//148 162//148 15//148
f 16//149 15//149 176//149
f 15//150 16//150 22//150
f 22//151 34//151 15//151
f 54//152 113//152 114//152
f 54//153 57//153 113//153
f 54//154 114//154 24//154
f 24//155 56//155 54//155
f 145//156 133//156 53//156
f 145//157 53//157 143//157
f 60//158 147//158 148//158
f 147//159 60//159 65//159
f 65//160 134//160 147//160
f 149//161 175//161 124//161
f 149//162 83//162 64//162
f 149//163 63//163 175//163
f 149//164 64//164 63//164
f 17//165 150//165 138//165
f 119//166 150//166 17//166
f 105//167 29//167 153//167
f 105//168 106//168 29//168
f 85//169 28//169 86//169
f 18//170 19//170 20//170
f 18//171 20//171 21//171
f 19//172 18//172 22//172
f 18//173 21//173 22//173
f 33//174 20//174 31//174
f 33//175 21//175 20//175
f 33//176 35//176 22//176
f 22//177 21//177 33//177
f 31//178 70//178 32//178
f 70//179 31//179 71//179
f 70//180 34//180 32//180
f 70//181 161//181 34//181
f 131//182 82//182 23//182
f 23//183 24//183 131//183
f 23//184 25//184 24//184
f 23//185 82//185 27//185
f 23//186 27//186 26//186
f 26//187 25//187 23//187
f 81//188 86//188 27//188
f 81//189 27//189 82//189
f 72//190 146//190 152//190
f 152//191 151//191 72//191
f 142//192 57//192 154//192
f 72//193 154//193 57//193
f 154//194 72//194 151//194
f 85//195 74//195 28//195
f 29//196 74//196 153//196
f 28//197 74//197 29//197
f 30//198 31//198 32//198
f 30//199 33//199 31//199
f 32//200 34//200 30//200
f 34//201 35//201 30//201
f 35//202 33//202 30//202
f 133//203 132//203 185//203
f 185//204 53//204 133//204
f 132//205 146//205 185//205
f 146//206 72//206 185//206
f 36//207 37//207 38//207
f 39//207 37//207 36//207
f 40//208 42//208 41//208
f 43//208 42//208 40//208
f 40//209 41//209 44//209
f 40//209 44//209 45//209
f 46//210 47//210 42//210
f 46//210 42//210 43//210
f 46//211 48//211 47//211
f 46//211 49//211 48//211
f 51//212 52//212 50//212
f 50//212 52//212 53//212
f 54//213 56//213 55//213
f 54//213 55//213 57//213
f 58//214 52//214 51//214
f 58//214 59//214 52//214
f 58//215 60//215 59//215
f 58//215 61//215 60//215
f 63//216 64//216 62//216
f 62//216 64//216 65//216
f 61//217 62//217 60//217
f 65//217 60//217 62//217
f 67//218 68//218 66//218
f 69//218 66//218 68//218
f 70//219 68//219 67//219
f 70//219 71//219 68//219
f 72//220 55//220 73//220
f 72//220 57//220 55//220
f 74//221 75//221 76//221
f 74//221 78//221 77//221
f 74//221 79//221 80//221
f 74//221 81//221 82//221
f 83//221 74//221 84//221
f 74//221 85//221 86//221
f 74//221 87//221 88//221
f 89//221 74//221 90//221
f 91//221 74//221 92//221
f 93//221 74//221 94//221
f 95//221 74//221 96//221
f 74//221 98//221 97//221
f 74//221 99//221 100//221
f 74//221 101//221 98//221
f 74//221 102//221 99//221
f 103//221 74//221 104//221
f 74//221 106//221 105//221
f 74//221 107//221 106//221
f 108//221 74//221 80//221
f 74//221 109//221 78//221
f 74//221 91//221 110//221
f 74//221 97//221 111//221
f 110//221 101//221 74//221
f 74//221 112//221 90//221
f 74//221 114//221 113//221
f 115//221 74//221 93//221
f 74//221 116//221 75//221
f 74//221 117//221 118//221
f 74//221 119//221 107//221
f 74//221 121//221 120//221
f 74//221 122//221 96//221
f 74//221 124//221 123//221
f 125//221 74//221 123//221
f 126//221 79//221 74//221
f 74//221 127//221 126//221
f 74//221 108//221 128//221
f 87//221 74//221 129//221
f 109//221 74//221 111//221
f 74//221 77//221 129//221
f 74//221 130//221 121//221
f 74//221 131//221 114//221
f 74//221 132//221 133//221
f 74//221 134//221 84//221
f 74//221 136//221 135//221
f 137//221 74//221 100//221
f 74//221 118//221 136//221
f 74//221 103//221 138//221
f 74//221 135//221 139//221
f 74//221 140//221 127//221
f 74//221 95//221 94//221
f 74//221 125//221 141//221
f 74//221 89//221 122//221
f 112//221 74//221 141//221
f 74//221 120//221 92//221
f 74//221 115//221 130//221
f 74//221 113//221 142//221
f 74//221 143//221 144//221
f 74//221 145//221 143//221
f 102//221 74//221 144//221
f 74//221 146//221 132//221
f 74//221 147//221 134//221
f 74//221 137//221 148//221
f 116//221 74//221 128//221
f 117//221 74//221 76//221
f 74//221 139//221 104//221
f 149//221 74//221 83//221
f 74//221 150//221 119//221
f 140//221 74//221 88//221
f 74//221 82//221 131//221
f 74//221 151//221 152//221
f 133//221 145//221 74//221
f 74//221 152//221 146//221
f 147//221 74//221 148//221
f 74//221 149//221 124//221
f 150//221 74//221 138//221
f 74//221 105//221 153//221
f 74//221 154//221 151//221
f 81//221 74//221 86//221
f 154//221 74//221 142//221
f 155//222 156//222 157//222
f 155//222 41//222 42//222
f 158//222 38//222 155//222
f 160//222 159//222 155//222
f 162//222 161//222 155//222
f 164//222 163//222 155//222
f 155//222 165//222 166//222
f 38//222 37//222 155//222
f 168//222 167//222 155//222
f 170//222 169//222 155//222
f 155//222 157//222 168//222
f 172//222 171//222 155//222
f 155//222 166//222 173//222
f 155//222 56//222 170//222
f 50//222 174//222 155//222
f 155//222 167//222 158//222
f 155//222 175//222 63//222
f 155//222 159//222 175//222
f 176//222 155//222 173//222
f 169//222 177//222 155//222
f 155//222 48//222 165//222
f 37//222 178//222 155//222
f 155//222 176//222 162//222
f 42//222 47//222 155//222
f 179//222 156//222 155//222
f 155//222 180//222 164//222
f 155//222 62//222 61//222
f 155//222 178//222 44//222
f 44//222 41//222 155//222
f 155//222 47//222 48//222
f 61//222 58//222 155//222
f 155//222 163//222 179//222
f 155//222 177//222 181//222
f 155//222 171//222 160//222
f 155//222 182//222 180//222
f 51//222 50//222 155//222
f 73//222 55//222 155//222
f 181//222 182//222 155//222
f 161//222 70//222 155//222
f 155//222 174//222 73//222
f 155//222 55//222 56//222
f 155//222 58//222 51//222
f 63//222 62//222 155//222
f 67//222 66//222 155//222
f 155//222 70//222 67//222
f 183//223 172//223 155//223
f 155//223 184//223 183//223
f 155//224 66//224 69//224
f 155//224 69//224 184//224
f 185//225 50//225 53//225
f 185//225 174//225 50//225
f 185//226 73//226 174//226
f 185//226 72//226 73//226
